<svg height="50" viewbox="0 0 50 50" width="50" xmlns="http://www.w3.org/2000/svg"><title>Twitter</title><path d="M 25,50 C 34.8,50.1 44.3,43.8 48,34.7 51.9,25.8 49.9,14.7 43,7.75 36.5,0.694 25.7,-1.88 16.6,1.41 7.31,4.59 0.403,13.8 0.032,23.7 -0.589,33.3 4.99,42.9 13,47.2 17.1,49 21,50 25,50 Z m 0,-3 C 34.5,47.1 43.6,40.2 46.1,31 48.8,22 45,11.8 37.3,6.75 29.3,1.21 17.8,1.9 10.6,8.36 3.32,14.4 0.911,25.4 4.94,34 8.37,41 16.4,47 25,47 Z M 24.6,20.5 c 0,1.9 -3.2,-0.1 -4.3,-0.3 -1,-0.8 -3.5,-2 -5,-3.9 -0.9,2 -0.6,4.6 1,6.1 -0.5,0.3 -2.4,-0.8 -1.4,1 0.1,1.6 2.3,2.9 3.1,3 -3.2,-0.5 -0.1,3 1.4,3.1 2,0 -1.4,1.4 -2,1.7 -0.9,0.5 -4.9,0.0048 -2.4,1.1 5.4,2.8 12.8,1.1 16.1,-4.1 1.8,-2.5 2.4,-5 2.7,-8.7 0.4,-0.7 3.3,-3.2 0.7,-2.1 -2.2,0.8 2.5,-3.5 -0.4,-1.7 -1.3,0.9 -2.3,0.1 -3.4,0 -3,-1.2 -6.5,1.5 -6.1,4.7 0,-0.8 0,-1.4 0,0 z" fill-rule="evenodd" fill="#69f"></path></svg>
